<svg width="29" height="25" viewBox="0 0 29 25" fill="none" xmlns="http://www.w3.org/2000/svg">
<path d="M7.8125 21.875C6.5625 21.875 5.3125 20.7812 4.6875 20.3125C1.5625 18.125 0.625 17.3438 0 16.875V23.4375C0 24.3003 0.699707 25 1.5625 25H14.0625C14.9253 25 15.625 24.3003 15.625 23.4375V16.875C15 17.3438 14.0625 18.125 10.9375 20.3125C10.3125 20.7812 9.0625 21.875 7.8125 21.875ZM14.0625 12.5H1.5625C0.699707 12.5 0 13.1997 0 14.0625V14.8438C1.25 15.7812 1.09375 15.7812 5.625 19.0625C6.09375 19.375 7.03125 20.3125 7.8125 20.3125C8.59375 20.3125 9.53125 19.375 10 19.2188C14.5313 15.9375 14.375 15.9375 15.625 15V14.0625C15.625 13.1997 14.9253 12.5 14.0625 12.5ZM26.5625 7.8125H10.9375C10.0747 7.8125 9.375 8.51221 9.375 9.375V10.9375H14.0625C15.6841 10.9375 17.021 12.1787 17.1733 13.7607L17.1875 13.75V20.3125H26.5625C27.4253 20.3125 28.125 19.6128 28.125 18.75V9.375C28.125 8.51221 27.4253 7.8125 26.5625 7.8125ZM25 14.0625H21.875V10.9375H25V14.0625ZM7.8125 9.375C7.8125 7.65186 9.21436 6.25 10.9375 6.25H21.875V1.5625C21.875 0.699707 21.1753 0 20.3125 0H4.6875C3.82471 0 3.125 0.699707 3.125 1.5625V10.9375H7.8125V9.375Z" fill="#E96767"/>
</svg>
